# xmcd
#
# Track frame offsets:
#	150
#	11422
#	29700
#	36875
#	47880
#	58110
#	73195
#	86380
#	101817
#	110257
#	120927
#	137032
#	150975
#	168545
#
# Disc length: 2392 seconds
#
# Revision: 6
# Processed by: cddbd v1.5.2PL0 Copyright (c) Steve Scherf et al.
# Submitted via: audiograbber 1.83.01
#
DISCID=b709560e
DTITLE=Neko Case - Blacklisted
DYEAR=2002
DGENRE=Rock
TTITLE0=Things That Scare Me
TTITLE1=Deep Red Bells
TTITLE2=Outro With Bees
TTITLE3=Lady Pilot
TTITLE4=Tightly
TTITLE5=Look For Me (I'll Be Around)
TTITLE6=Stinging Velvet
TTITLE7=Pretty Girls
TTITLE8=I Missed the Point
TTITLE9=Blacklisted
TTITLE10=I Wish I Was the Moon
TTITLE11=Runnin' Out of Fools
TTITLE12=Ghost Wiring
TTITLE13=Outro With Bees (reprise)
EXTD=YEAR: 2002 ID3G: 2
EXTT0=
EXTT1=
EXTT2=
EXTT3=
EXTT4=
EXTT5=
EXTT6=
EXTT7=
EXTT8=
EXTT9=
EXTT10=
EXTT11=
EXTT12=
EXTT13=
PLAYORDER=
